<svg xmlns="http://www.w3.org/2000/svg" viewBox="0 0 34.03 32.7">
  <defs>
    <style>
      .cls-1 {
        fill: #f29100;
      }
    </style>
  </defs>
  <title>Recurso 6</title>
  <g id="Capa_2" data-name="Capa 2">
    <g id="Capa_2-2" data-name="Capa 2">
      <g id="JYS5Qj">
        <g>
          <path class="cls-1" d="M10.2,12.42l-1.33-.22a25.27,25.27,0,0,0-2.79-.3c-1.33-.08-2.66-.06-4,0-.64,0-.64,0-.64.65q0,7.72,0,15.44c0,.28.08.3.33.28a25,25,0,0,1,4.82.05,30.59,30.59,0,0,1,4.8.85,18,18,0,0,1,3.39,1.21c.28.14.29.13.29-.18q0-7.27,0-14.53c0-.27.05-.34.33-.29a3.55,3.55,0,0,0,.84,0c.23,0,.29.05.29.28,0,1.65,0,3.3,0,4.94q0,4.81,0,9.62c0,.33,0,.34.29.19a19.13,19.13,0,0,1,5.79-1.79,34.13,34.13,0,0,1,7.21-.34c.26,0,.34,0,.34-.32,0-2.89,0-5.77,0-8.66,0-.26.07-.33.32-.31s.62,0,.93,0c.14,0,.2,0,.19.19s0,.33,0,.49c0,3.28,0,6.56,0,9.84,0,.26-.08.32-.32.31a43.86,43.86,0,0,0-4.8-.11,24.2,24.2,0,0,0-7.31,1.27A12.68,12.68,0,0,0,16,32.59c-.09.07-.18.18-.32,0a9.5,9.5,0,0,0-3.83-1.89,26.82,26.82,0,0,0-4.67-1,22.09,22.09,0,0,0-6.77.08c-.37.07-.39.05-.39-.32Q0,20.2,0,10.84c0-.35,0-.34.36-.35,1.32,0,2.64-.13,4-.1a35.13,35.13,0,0,1,4.78.37.39.39,0,0,1,.35.27A7.34,7.34,0,0,0,10.2,12.42Z"/>
          <path class="cls-1" d="M15.9,0H17a.42.42,0,0,1,.47.47c0,.15,0,.29,0,.44,0,.39,0,.46-.42.58-.06,0-.13,0-.13.11s0,.42,0,.63.1.14.19.16a6.33,6.33,0,0,1,1.29.42c.14.07.22,0,.29-.11s.36-.48.55-.71a.43.43,0,0,1,.67-.1c.24.17.47.35.7.53a.46.46,0,0,1,.09.68,8,8,0,0,1-.5.65c-.13.15-.09.23,0,.35A6,6,0,0,1,22,8.64a6.13,6.13,0,1,1-7.82-6.12l.16,0c.51-.15.51-.15.52-.7,0-.19,0-.32-.25-.31a.2.2,0,0,1-.14-.07A1.23,1.23,0,0,1,14.32.31c0-.29.31-.32.56-.31h1Zm4.61,8.63A4.64,4.64,0,1,0,15.67,13,4.62,4.62,0,0,0,20.51,8.63Z"/>
          <path class="cls-1" d="M21.56,12.44a7.25,7.25,0,0,0,.64-1.19c.11-.36.34-.46.68-.52a34.65,34.65,0,0,1,6.61-.35c.62,0,1.23.08,1.85.1.18,0,.25.06.25.26,0,.56,0,1.13,0,1.69,0,.09,0,.18-.1.23a2.19,2.19,0,0,0-1.27,1.17c-.1-.05-.06-.13-.06-.2,0-.5,0-1,0-1.5,0-.19,0-.27-.25-.28a31.41,31.41,0,0,0-8.19.59Z"/>
          <path class="cls-1" d="M4.8,16.32c-.38,0-.76,0-1.15,0-.16,0-.23,0-.23-.21s0-.55,0-.82,0-.19.19-.19A19.83,19.83,0,0,1,13,16.94a.43.43,0,0,1,.3.49,3.72,3.72,0,0,0,0,.65c0,.24-.07.24-.25.15a20.72,20.72,0,0,0-2.55-1A18.33,18.33,0,0,0,4.8,16.32Z"/>
          <path class="cls-1" d="M4.74,19.12c-.38,0-.73,0-1.07,0-.18,0-.24-.06-.23-.23s0-.49,0-.74,0-.24.22-.25a22.91,22.91,0,0,1,3.57.15,18.43,18.43,0,0,1,5.91,1.73c.15.07.23.14.22.32s0,.56,0,.85,0,.19-.19.12a22,22,0,0,0-2.95-1.15,17.27,17.27,0,0,0-3.36-.69A16,16,0,0,0,4.74,19.12Z"/>
          <path class="cls-1" d="M4.63,22h-1c-.14,0-.22,0-.21-.19s0-.53,0-.79,0-.22.21-.23a22.57,22.57,0,0,1,3.92.19,18.31,18.31,0,0,1,5.58,1.69c.15.07.22.15.21.32a8.18,8.18,0,0,0,0,.82c0,.2-.05.2-.21.13a20.75,20.75,0,0,0-3-1.18A17.21,17.21,0,0,0,6,22C5.54,22,5.06,21.94,4.63,22Z"/>
          <path class="cls-1" d="M4.77,23.59a18.89,18.89,0,0,1,6.32,1,21.51,21.51,0,0,1,2.09.87.22.22,0,0,1,.14.23c0,.3,0,.6,0,.9s-.06.17-.19.11a21,21,0,0,0-4.26-1.5A18.89,18.89,0,0,0,6,24.85c-.78-.06-1.56-.07-2.35,0-.13,0-.2,0-.2-.18s0-.53,0-.79,0-.24.22-.24Z"/>
          <path class="cls-1" d="M30.51,17.87c-.62,0-.62,0-.39-.58.34-.87.71-1.73,1-2.61.41-1.09,1.22-1,1.94-.6a2.12,2.12,0,0,1,.79.82.8.8,0,0,1-.23,1.16c-.5.38-1,.73-1.54,1.09l-.58.41A1.18,1.18,0,0,1,30.51,17.87Z"/>
          <path class="cls-1" d="M17.06,8.56a1,1,0,0,1-.87,1,1,1,0,0,1-1-.68.65.65,0,0,0-.22-.33L13.22,7.15a1,1,0,0,1-.36-.44.32.32,0,0,1,.35-.45,1.16,1.16,0,0,1,.43.15l1.82,1a1.11,1.11,0,0,0,.61.17A.93.93,0,0,1,17.06,8.56Z"/>
        </g>
      </g>
    </g>
  </g>
</svg>
