<svg xmlns="http://www.w3.org/2000/svg" viewBox="0 0 60.8 39.27">
  <defs>
    <style>
      .cls-1 {
        fill: #022356;
      }
    </style>
  </defs>
  <title>Recurso 4</title>
  <g id="Capa_2" data-name="Capa 2">
    <g id="Capa_2-2" data-name="Capa 2">
      <g>
        <path class="cls-1" d="M29.76,39.27l-.6-.21C29,39,12.16,33.34,0,33.34V29.65c11.58,0,26.53,4.67,29.74,5.72,3.16-1.06,17.75-5.72,31.06-5.72v3.69c-14.07,0-30.27,5.66-30.43,5.72Z"/>
        <rect class="cls-1" x="15.39" y="16.79" width="1.23" height="29.73" transform="translate(-19.36 34.41) rotate(-67.62)"/>
        <rect class="cls-1" x="18.14" y="15.58" width="1.23" height="27.3" transform="translate(-15.91 27.03) rotate(-53.67)"/>
        <rect class="cls-1" x="20.24" y="15.01" width="1.23" height="25.85" transform="translate(-13.5 22.02) rotate(-43.48)"/>
        <rect class="cls-1" x="27.66" y="30.07" width="29.73" height="1.23" transform="translate(-8.49 18.52) rotate(-22.4)"/>
        <rect class="cls-1" x="26.13" y="27.65" width="27.3" height="1.23" transform="translate(-9.01 29.1) rotate(-36.38)"/>
        <rect class="cls-1" x="25.08" y="26.68" width="25.84" height="1.23" transform="translate(-8.23 34.48) rotate(-44.53)"/>
        <path class="cls-1" d="M26.55,30.27c-3.6-4.95-3.67-5.11-3.7-5.17a4.68,4.68,0,0,1-.3-1,5.27,5.27,0,0,1,0-1.74,9.34,9.34,0,0,1,1.05-3.13l.4-.72c.22-.39.44-.77.63-1.17a4.78,4.78,0,0,0,.34-1.26,26.24,26.24,0,0,1,.53-3.21.4.4,0,0,0,0-.26,4,4,0,0,1-.33-1.44v-.14a5,5,0,0,0-.35-2,17.73,17.73,0,0,0-1.06-2.39l-.09-.17-.13-.24a1.1,1.1,0,0,0-.77-.57,4.24,4.24,0,0,0-1-.11h-.9c-.45,0-.89,0-1.34,0h-.29c-.42,0-.84,0-1.25,0a9.44,9.44,0,0,0-1.76.23,2,2,0,0,1-.51.08,1.52,1.52,0,0,1-.85-.24,6.47,6.47,0,0,0-1.69-.82,1.8,1.8,0,0,0-1.21,0,1.51,1.51,0,0,0-.4.24.87.87,0,0,1-.66.2l-.33,0A.71.71,0,0,1,10,5a7.35,7.35,0,0,0-.92-.67,2.9,2.9,0,0,0-1.91-.45,12.94,12.94,0,0,0-2.61.45,1.88,1.88,0,0,0-.28.11L3,5l.38-1.14.25-.19a5.23,5.23,0,0,1,.88-.41L5,3c.88-.35,1.76-.7,2.64-1.07l.54-.23L10,1A13.61,13.61,0,0,1,12.56.19,11.88,11.88,0,0,1,15.19,0h.14c.55,0,1.1,0,1.65.09l.36,0,1.26.11,2.22.21c.39,0,.78.09,1.16.16a1.82,1.82,0,0,1,.76.32c1,.71,1.94,1.47,2.87,2.21l.59.47a9.1,9.1,0,0,1,1.76,1.94,9,9,0,0,0,1.6,1.67c.25.22.52.42.78.63l.5.4c.42-.27.85-.52,1.28-.77l.25-.14c1-.55,2-1.07,3-1.54.45-.21.82-.38,1.2-.54a13.59,13.59,0,0,1,1.3-.45l.55-.16c.89-.27,1.81-.54,2.68-.87s2-.8,3-1.29l1.2-.56.93-.43L47.53.85a1.55,1.55,0,0,1,.81-.16,12.44,12.44,0,0,1,2.39.41,11.6,11.6,0,0,1,2.06.76A4.35,4.35,0,0,1,54.23,3,7.31,7.31,0,0,1,55.44,5.1a13,13,0,0,1,.6,2,.92.92,0,0,1,0,.3.6.6,0,0,1-.36.51.59.59,0,0,1-.61-.11A2.07,2.07,0,0,0,54,7.43a9.32,9.32,0,0,0-1.5,0l-1.69.11a8.06,8.06,0,0,0-1.77.3,6.3,6.3,0,0,0-2,.92,1.86,1.86,0,0,1-.34.19l-.12,0a.68.68,0,0,1-.82-.1l-.11-.08a4.19,4.19,0,0,1-.36-.3l-.15-.13a.78.78,0,0,0-.48-.17,2.3,2.3,0,0,0-.58,0l-.75.11-.47.06c-.73.11-1.44.28-2.1.44l-.14,0A.64.64,0,0,1,40,8.86a.53.53,0,0,1-.19-.31l0,0a7.51,7.51,0,0,1-.72.59,6.72,6.72,0,0,0-1.12,1c-.34.38-.67.77-1,1.17l-.21.26c-.34.42-.67.84-1,1.29a1.3,1.3,0,0,0-.15.27.91.91,0,0,0,.92.59,2.09,2.09,0,0,0,.59-.08,1.37,1.37,0,0,1,.08-.4.68.68,0,0,1,.53-.43,3.7,3.7,0,0,1,1.31-.08l.53.06.12,0a1,1,0,0,1,.35.11.94.94,0,0,1,.42.17h0l.21-.54.5.47.24.23.39.44a1.89,1.89,0,0,1,.35.6,1.07,1.07,0,0,1,.06.48.69.69,0,0,0,0,.12l.08.74-.7-.26-.18.16-.2-.06,0,.06.11.07a.5.5,0,0,1,.25,0l.2.08.1.25a.66.66,0,0,1-.29.78.82.82,0,0,1-.37.09,1.51,1.51,0,0,1-.55-.1,1.11,1.11,0,0,0-.31-.07,1.34,1.34,0,0,1-.38-.09h0a3.6,3.6,0,0,1-.43,0,1.82,1.82,0,0,0-.45,0,1,1,0,0,1-.42.19l-.54.12a2.28,2.28,0,0,1-.88,0l-.48-.07c-.39-.06-.78-.11-1.16-.2a3,3,0,0,1-.68-.21l-.12-.06-.28-.15a2.11,2.11,0,0,1,.15.74,2.15,2.15,0,0,1-.41,1.2,1.1,1.1,0,0,1-.43.36l.5.34a1.22,1.22,0,0,1,.44,0L35,19l.23.4a4.62,4.62,0,0,1,.3.54l.34.75-.79-.09a.49.49,0,0,1-.19.15.46.46,0,0,1-.26,0l-.12.1a.55.55,0,0,1-.44,0,.93.93,0,0,1-.64-.18l-.18-.13a1.93,1.93,0,0,1-.44-.38,2.52,2.52,0,0,0-.64-.54,3.7,3.7,0,0,1-.38-.27l-.15,0-.25-.2a3,3,0,0,1-.35-.33,1.31,1.31,0,0,0-.33-.27l-.16-.11-.23-.15a.79.79,0,0,1-.43.13H29.7a1.2,1.2,0,0,1-.55-.15.6.6,0,0,1-.13.32.59.59,0,0,1-.19.15c.07.28.14.52.21.76s.15.45.24.67l.06.14a.84.84,0,0,1,.52,1l-.14.57-.52-.27h0l-.05.09-.49,1.1-.27-.68L28,22l-.05,0-.21.42-.44-.71a1.39,1.39,0,0,1-.25-1,1,1,0,0,0,0-.33,3,3,0,0,1-.16-.68,1,1,0,0,1,.09-.56c0-.15-.09-.31-.14-.46s-.13-.44-.21-.65a14.14,14.14,0,0,1-.64,1.33c-.21.39-.46.77-.71,1.14a5.44,5.44,0,0,0-.69,1.35,4.07,4.07,0,0,0,0,2.17c0,.18.09.36.13.53a6.78,6.78,0,0,0,.59,1.22c.2.32.59.94.76,1.25.49.88,1.33,2.71,1.37,2.79Zm-2.86-5.56,0,.06c-.05-.19-.1-.37-.14-.56a5,5,0,0,1,.07-2.65,6.3,6.3,0,0,1,.8-1.58c.23-.35.46-.7.67-1.07a12.85,12.85,0,0,0,.72-1.53l.25-.59.27-.11a.53.53,0,0,1,.48.12,1.48,1.48,0,0,1,.39.44,6,6,0,0,1,.44,1.18c0,.16.1.33.15.49a.77.77,0,0,1-.09.67,2.9,2.9,0,0,0,.12.46,2,2,0,0,1,.1.76h.16l.1.18a.64.64,0,0,1,.25-.07l.08-.1-.05-.11-.05-.14c-.1-.25-.2-.49-.27-.75s-.19-.7-.28-1a.66.66,0,0,1,.08-.63l.1-.09L28,18a7.93,7.93,0,0,1-.58-.77,1.35,1.35,0,0,1-.11-1.37,3.58,3.58,0,0,0,.25-.72c0-.15.08-.3.12-.44a4.76,4.76,0,0,0,.15-.58.61.61,0,0,1,.4-.5.6.6,0,0,1,.61.15,3.08,3.08,0,0,1,.63.76,2.82,2.82,0,0,0,.22.38,1.08,1.08,0,0,1,.22.66c0,.51,0,1,0,1.53v.12a1.22,1.22,0,0,1-.08.39v0h0l.13.46v-.46a.76.76,0,0,1,.76-.11.86.86,0,0,1-.29-.74,1.59,1.59,0,0,1,.41-1,.67.67,0,0,0,.16-.35.65.65,0,0,0-.06-.15.68.68,0,0,1,.14-.79,1.56,1.56,0,0,0,.16-.16A.7.7,0,0,1,32,14a1.65,1.65,0,0,0,.45.09c.56,0,.78.2.84.76V15l0,.06a.69.69,0,0,1,.06-.17l.1-.2.28-.12a.55.55,0,0,1,.47.11l.11.1a6.23,6.23,0,0,0,.62.51,2.41,2.41,0,0,0,.36.2l.13.07a1.87,1.87,0,0,0,.39.12c.44.1.8.16,1.17.21l.5.08A1.38,1.38,0,0,0,38,16l.54-.12a.86.86,0,0,1,.48-.21,2.42,2.42,0,0,1,.68,0,.67.67,0,0,1-.08-.27.81.81,0,0,1,.24-.6.59.59,0,0,1,.46-.18.65.65,0,0,1,.42,0,.81.81,0,0,1,.23,0,.71.71,0,0,1,.27,0l.06,0a.54.54,0,0,0-.11-.19l-.24-.27a.55.55,0,0,1-.2,0,.77.77,0,0,1-.53-.08l-.2-.11-.2,0-.19-.18H39.5L39,13.72a3,3,0,0,0-.93,0,.14.14,0,0,0,0,0,.64.64,0,0,1-.44.74,3.53,3.53,0,0,1-1.07.2,1.86,1.86,0,0,1-1.68-.92,1,1,0,0,1-.1-.9,2.15,2.15,0,0,1,.25-.47c.31-.47.67-.91,1-1.35l.2-.26c.33-.42.67-.83,1-1.22a7.69,7.69,0,0,1,1.28-1.19,6.49,6.49,0,0,0,.63-.52l.16-.14a.75.75,0,0,1,.87-.12l.16.08a.68.68,0,0,1,.27.26c.62-.15,1.33-.31,2-.42l.49-.07.71-.1a3.07,3.07,0,0,1,.79-.05,1.69,1.69,0,0,1,1,.39l.17.15a3.21,3.21,0,0,0,.28.23l.09.06.08,0L46.47,8A7.15,7.15,0,0,1,48.73,7a8.89,8.89,0,0,1,2-.33l1.68-.11a9.79,9.79,0,0,1,1.65,0,3.44,3.44,0,0,1,1,.22,12.48,12.48,0,0,0-.42-1.3,6.44,6.44,0,0,0-1.06-1.88,3.44,3.44,0,0,0-1.14-.86A10.72,10.72,0,0,0,50.5,2a11.68,11.68,0,0,0-2.22-.38.59.59,0,0,0-.33.06l-1.36.66-.94.44-1.18.55c-1,.5-2.06.94-3.06,1.32s-1.84.62-2.75.89l-.54.16a12.42,12.42,0,0,0-1.22.41c-.37.15-.73.32-1.09.48-1.07.5-2,1-3,1.54l-.25.14c-.47.27-.94.53-1.38.84a.62.62,0,0,1-.78,0l-.65-.52c-.27-.21-.54-.43-.81-.65A10,10,0,0,1,27.2,6.08a8.15,8.15,0,0,0-1.58-1.74L25,3.87c-.92-.73-1.87-1.49-2.83-2.19a.88.88,0,0,0-.37-.16c-.36-.06-.73-.12-1.1-.15l-2.21-.21-1.25-.1L16.9,1C16.36,1,15.83,1,15.29.94h-.14a10.65,10.65,0,0,0-2.42.16,12.54,12.54,0,0,0-2.39.77l-1.75.73L8,2.81l-.3.13a3.6,3.6,0,0,1,1.84.57,8.75,8.75,0,0,1,1.06.77l.29,0a2,2,0,0,1,.62-.37,2.69,2.69,0,0,1,1.81,0,7.44,7.44,0,0,1,1.93.93.48.48,0,0,0,.36.09,1,1,0,0,0,.22,0,10.55,10.55,0,0,1,2-.27c.44,0,.89,0,1.33,0h.28c.43,0,.86,0,1.29,0h.93a5.14,5.14,0,0,1,1.22.14,2,2,0,0,1,1.37,1l.22.4a18.81,18.81,0,0,1,1.12,2.51,5.79,5.79,0,0,1,.4,2.39,3.17,3.17,0,0,0,.26,1.16,1.31,1.31,0,0,1,.08.82,25.33,25.33,0,0,0-.51,3.09,5.74,5.74,0,0,1-.43,1.56c-.2.42-.43.83-.66,1.24-.13.23-.26.46-.38.69a8.43,8.43,0,0,0-1,2.82,4.35,4.35,0,0,0,0,1.44A3.81,3.81,0,0,0,23.68,24.71ZM28.08,22h0Zm-.59-.42h0Zm4.4-3.23a.53.53,0,0,1,.41.21,2.2,2.2,0,0,0,.39.3,3.38,3.38,0,0,1,.87.74,1.17,1.17,0,0,0,.24.2L34,20a.61.61,0,0,1,.22-.18v0h0a.94.94,0,0,1-.39-.16l-.69-.48a1.83,1.83,0,0,1-.44-.46,1,1,0,0,0-.26-.23l-.24-.16a5.16,5.16,0,0,1-.48-.33,1,1,0,0,0-.2-.11l-.11,0a1.08,1.08,0,0,0-.3-.1l-.16,0,.12.08.15.1a2.29,2.29,0,0,1,.54.46l.07.07Zm-3.57.48h0ZM32,18.53h0Zm-1.74-.21h0Zm.12,0h0Zm-2.17-.14a.2.2,0,0,0,0,.08l.08,0Zm0,0,.07.05.35-.17-.38,0A.31.31,0,0,0,28.26,18.16Zm.66-.07-.22.1.27,0Zm-2.07-.73h0Zm1.73-2.54,0,.1c0,.13-.08.26-.11.39a4.56,4.56,0,0,1-.32.9.43.43,0,0,0,.06.47,7.11,7.11,0,0,0,.51.68l0-.14.25-.27c0-.48.05-1,0-1.44L28.69,15Zm2.76,2a1.2,1.2,0,0,1,.51.14,2.45,2.45,0,0,1,.45.24.69.69,0,0,1,.62-.08l0-.09a1,1,0,0,0,0-.71,6,6,0,0,0-.39-.72,1,1,0,0,1-.19-.56,2.35,2.35,0,0,1-.53-.09l0,0a1,1,0,0,1,.07.56,1.58,1.58,0,0,1-.4.83.68.68,0,0,0-.16.42ZM29.52,17l0,0ZM41.37,15.8v0Zm-1-.35h0Zm-6.16-.26h0Zm6.09,0h0ZM28.19,14.4h0ZM39.82,8.33h0ZM10.54,4.27h0Z"/>
      </g>
    </g>
  </g>
</svg>
