<svg xmlns="http://www.w3.org/2000/svg" viewBox="0 0 135.4 62.37">
  <defs>
    <style>
      .cls-1 {
        fill: #f29100;
      }
    </style>
  </defs>
  <title>Recurso 2</title>
  <g id="Capa_2" data-name="Capa 2">
    <g id="Capa_2-2" data-name="Capa 2">
      <g>
        <g>
          <path class="cls-1" d="M0,62.07V60H.91V53.11H0v-2H5.87a4.9,4.9,0,0,1,2.91.7,2.33,2.33,0,0,1,.94,2,4.21,4.21,0,0,1-.08.87,2.15,2.15,0,0,1-.25.66,1.77,1.77,0,0,1-.47.51,3.23,3.23,0,0,1-.74.39,3.89,3.89,0,0,1,.8.34,2.42,2.42,0,0,1,.66.54,2.51,2.51,0,0,1,.45.78,2.94,2.94,0,0,1,.17,1,2.86,2.86,0,0,1-1,2.43A5.48,5.48,0,0,1,6,62.07Zm4.17-8.92v2.36h1A1,1,0,0,0,6,55.19a1.55,1.55,0,0,0,.22-.89,1.17,1.17,0,0,0-.29-.85,1,1,0,0,0-.75-.3ZM5.43,60A1.27,1.27,0,0,0,6.7,58.68a1.49,1.49,0,0,0-.33-1,1.22,1.22,0,0,0-1-.39H4.17V60Z"/>
          <path class="cls-1" d="M15.37,62.07H11V60h.66V56.25H11v-2h3.65V60h.76Zm-4-10.16a1.52,1.52,0,0,1,.11-.55,1.67,1.67,0,0,1,.32-.52,1.65,1.65,0,0,1,.54-.39,1.74,1.74,0,0,1,2.34.91,1.42,1.42,0,0,1,.12.55A1.58,1.58,0,0,1,14.39,53a1.7,1.7,0,0,1-1.29.46,1.61,1.61,0,0,1-.68-.14,1.81,1.81,0,0,1-.53-.37,1.68,1.68,0,0,1-.35-.51A1.38,1.38,0,0,1,11.4,51.91Z"/>
          <path class="cls-1" d="M16.41,62.07V60h.66V52.34h-.66V50.28h3.81v4.55a1.27,1.27,0,0,1,.35-.29,3.1,3.1,0,0,1,.51-.24,3.48,3.48,0,0,1,.6-.16,3.64,3.64,0,0,1,2.19.29,3.33,3.33,0,0,1,1.12.92,4,4,0,0,1,.68,1.32,5.22,5.22,0,0,1,.23,1.53,5.33,5.33,0,0,1-.28,1.66,3.73,3.73,0,0,1-.73,1.27,3.28,3.28,0,0,1-1.13.82,3.66,3.66,0,0,1-1.49.29,4.64,4.64,0,0,1-.77-.05,2.5,2.5,0,0,1-.55-.16,2.39,2.39,0,0,1-.42-.23,3.43,3.43,0,0,1-.34-.27l-.24.54Zm6-3.84a3.21,3.21,0,0,0-.08-.7,2.28,2.28,0,0,0-.23-.62,1.5,1.5,0,0,0-.36-.44.72.72,0,0,0-.46-.17,1,1,0,0,0-.78.49,2.31,2.31,0,0,0-.34,1.34,4,4,0,0,0,.08.82,2.48,2.48,0,0,0,.23.66,1.26,1.26,0,0,0,.36.44.76.76,0,0,0,.46.16.92.92,0,0,0,.81-.53A2.88,2.88,0,0,0,22.43,58.24Z"/>
          <path class="cls-1" d="M31.38,62.07H26.79V60h.68V52.31H26.8v-2h3.65V60h.93Z"/>
          <path class="cls-1" d="M36.57,62.07H32.17V60h.66V56.25h-.66v-2h3.65V60h.76Zm-4-10.16a1.52,1.52,0,0,1,.11-.55,1.67,1.67,0,0,1,.32-.52,1.65,1.65,0,0,1,.54-.39,1.74,1.74,0,0,1,2.34.91,1.42,1.42,0,0,1,.12.55A1.58,1.58,0,0,1,35.6,53a1.7,1.7,0,0,1-1.29.46,1.61,1.61,0,0,1-.68-.14,1.81,1.81,0,0,1-.53-.37,1.68,1.68,0,0,1-.35-.51A1.38,1.38,0,0,1,32.61,51.91Z"/>
          <path class="cls-1" d="M41.68,62.28A5.26,5.26,0,0,1,40,62a4.15,4.15,0,0,1-1.41-.78,3.71,3.71,0,0,1-1-1.31,4.32,4.32,0,0,1-.36-1.82,4,4,0,0,1,.37-1.75,3.89,3.89,0,0,1,1-1.28A4.2,4.2,0,0,1,40,54.29,4.83,4.83,0,0,1,41.61,54a5,5,0,0,1,1.73.29,4.09,4.09,0,0,1,1.39.83,3.77,3.77,0,0,1,.92,1.32A4.5,4.5,0,0,1,46,58.24,4.15,4.15,0,0,1,45.64,60a3.74,3.74,0,0,1-.92,1.27,3.93,3.93,0,0,1-1.36.79A5.14,5.14,0,0,1,41.68,62.28Zm0-2a.7.7,0,0,0,.45-.16,1.31,1.31,0,0,0,.34-.44,2.49,2.49,0,0,0,.21-.67,4.51,4.51,0,0,0,.07-.83,4.1,4.1,0,0,0-.08-.83,2.74,2.74,0,0,0-.22-.67,1.29,1.29,0,0,0-.35-.45.78.78,0,0,0-.5-.17.68.68,0,0,0-.43.16,1.29,1.29,0,0,0-.34.44,2.93,2.93,0,0,0-.23.66,3.59,3.59,0,0,0-.09.8,3.15,3.15,0,0,0,.33,1.56A1,1,0,0,0,41.68,60.27Z"/>
          <path class="cls-1" d="M46.54,54.21h.85V52.76l2.89-.93v2.38h1.49v2H50.29v2.8c0,.07,0,.15,0,.22s0,.15,0,.24a1.67,1.67,0,0,0,.09.56q.09.24.43.24a1.89,1.89,0,0,0,.46-.09,4.24,4.24,0,0,0,.53-.18v2a2.1,2.1,0,0,1-.44.13l-.55.09-.53.06-.39,0a3.26,3.26,0,0,1-1.38-.24,1.58,1.58,0,0,1-.73-.66,2.69,2.69,0,0,1-.3-1q-.06-.61-.08-1.37v-2.8h-.85Z"/>
          <path class="cls-1" d="M60.47,61a5.31,5.31,0,0,1-1.86,1.06,7.34,7.34,0,0,1-2.2.31,4.68,4.68,0,0,1-1.48-.24,3.85,3.85,0,0,1-1.33-.75,3.9,3.9,0,0,1-1-1.32,4.56,4.56,0,0,1-.38-1.94,4.29,4.29,0,0,1,.33-1.72,3.87,3.87,0,0,1,.9-1.3,3.76,3.76,0,0,1,1.34-.81A4.92,4.92,0,0,1,56.49,54a4.83,4.83,0,0,1,1.72.28,3.48,3.48,0,0,1,1.25.79,3.25,3.25,0,0,1,.75,1.19,4.29,4.29,0,0,1,.25,1.49,4.12,4.12,0,0,1,0,.62,3.1,3.1,0,0,1-.14.57h-5a3.69,3.69,0,0,0,.1.38,1.22,1.22,0,0,0,.24.42,1.36,1.36,0,0,0,.47.35,1.89,1.89,0,0,0,.8.14l.45,0a2.59,2.59,0,0,0,.53-.09,3.78,3.78,0,0,0,.6-.23,2.86,2.86,0,0,0,.63-.42Zm-3.89-4.88a1.11,1.11,0,0,0-.59.14,1.2,1.2,0,0,0-.36.34,1.32,1.32,0,0,0-.19.42,2.67,2.67,0,0,0-.07.36h2.38a2.23,2.23,0,0,0,0-.45,1.19,1.19,0,0,0-.17-.41.83.83,0,0,0-.35-.29A1.41,1.41,0,0,0,56.58,56.11Z"/>
          <path class="cls-1" d="M66.52,57.76a4.36,4.36,0,0,0-.07-.57,2.4,2.4,0,0,0-.17-.54,1,1,0,0,0-.3-.39.71.71,0,0,0-.46-.15,1.06,1.06,0,0,0-.61.17,1.44,1.44,0,0,0-.43.46,2.2,2.2,0,0,0-.26.65,3.17,3.17,0,0,0-.09.74,2,2,0,0,0,.44,1.33,1.51,1.51,0,0,0,1.23.53,2.11,2.11,0,0,0,1-.24,3.26,3.26,0,0,0,.82-.65l1.38,1.6a5.12,5.12,0,0,1-.68.59,4.7,4.7,0,0,1-.89.51,6.31,6.31,0,0,1-1.08.36,5.15,5.15,0,0,1-1.21.14A5.24,5.24,0,0,1,63.55,62a3.77,3.77,0,0,1-2.32-2.1,4.46,4.46,0,0,1-.35-1.84,4.61,4.61,0,0,1,.32-1.8A3.59,3.59,0,0,1,62.05,55a3.39,3.39,0,0,1,1.23-.73,4.53,4.53,0,0,1,1.46-.24,2.52,2.52,0,0,1,.72.09,2.56,2.56,0,0,1,.57.24,2.49,2.49,0,0,1,.42.3l.27.27.27-.75h1.86v3.55Z"/>
          <path class="cls-1" d="M69.94,54.87l.6-.33c.24-.12.51-.25.81-.37a6.42,6.42,0,0,1,1-.3,4.68,4.68,0,0,1,1.06-.12,7.53,7.53,0,0,1,1.46.15,4.29,4.29,0,0,1,1.38.52,3.05,3.05,0,0,1,1,1,2.88,2.88,0,0,1,.4,1.57v3.07h.94v2H75.21l-.38-.71a2.25,2.25,0,0,1-.5.5,2.55,2.55,0,0,1-.57.31,3.17,3.17,0,0,1-1.06.2,4.06,4.06,0,0,1-1.12-.16,3.19,3.19,0,0,1-1-.47,2.43,2.43,0,0,1-.72-.81,2.41,2.41,0,0,1-.28-1.19,2.7,2.7,0,0,1,.26-1.2,2.74,2.74,0,0,1,.71-.91,3.21,3.21,0,0,1,1-.58,3.85,3.85,0,0,1,1.26-.21,2.47,2.47,0,0,1,.62.07,2.51,2.51,0,0,1,.47.17,1.64,1.64,0,0,1,.31.19l.15.13v-.55a.69.69,0,0,0-.42-.71A2.86,2.86,0,0,0,72.94,56a3.47,3.47,0,0,0-1.3.24,9.55,9.55,0,0,0-1,.49Zm3.49,5.46a1.14,1.14,0,0,0,.63-.17,1.22,1.22,0,0,0,.38-.35v-.6l-.07-.1A.8.8,0,0,0,74.2,59a1.2,1.2,0,0,0-.28-.14,1.18,1.18,0,0,0-.42-.06.91.91,0,0,0-.69.24.84.84,0,0,0-.22.6.68.68,0,0,0,.24.54A.88.88,0,0,0,73.43,60.33Z"/>
          <path class="cls-1" d="M88.25,59.53a1.72,1.72,0,0,1,0-.32c0-.13.06-.28.1-.43s.09-.32.15-.49.12-.33.18-.49l.75-1.59h-.83v-2H92.7v2h-.82l-2.72,5.87H86.72l-2.93-5.87h-.74v-2h4.78v2H87l.72,1.67a9.44,9.44,0,0,1,.27.93q.11.47.14.72Z"/>
          <path class="cls-1" d="M97.65,62.07H93.25V60h.66V56.25h-.66v-2H96.9V60h.76Zm-4-10.16a1.52,1.52,0,0,1,.11-.55,1.67,1.67,0,0,1,.32-.52,1.65,1.65,0,0,1,.54-.39,1.74,1.74,0,0,1,2.34.91,1.42,1.42,0,0,1,.12.55A1.58,1.58,0,0,1,96.68,53a1.7,1.7,0,0,1-1.29.46,1.61,1.61,0,0,1-.68-.14,1.81,1.81,0,0,1-.53-.37,1.68,1.68,0,0,1-.35-.51A1.38,1.38,0,0,1,93.69,51.91Z"/>
          <path class="cls-1" d="M103,62.07H98.6V60h.69V56.25h-.68v-2h3l.47,1q.16-.28.33-.54a1.89,1.89,0,0,1,.44-.45,2,2,0,0,1,.66-.31,3.83,3.83,0,0,1,1-.11v2.83a3.16,3.16,0,0,0-1.64.35,1.51,1.51,0,0,0-.57,1.39V60H103Z"/>
          <path class="cls-1" d="M105.11,54.21H106V52.76l2.89-.93v2.38h1.49v2h-1.49v2.8c0,.07,0,.15,0,.22s0,.15,0,.24a1.67,1.67,0,0,0,.09.56q.09.24.43.24a1.89,1.89,0,0,0,.46-.09,4.24,4.24,0,0,0,.53-.18v2a2.1,2.1,0,0,1-.44.13l-.55.09-.53.06-.39,0a3.26,3.26,0,0,1-1.38-.24,1.58,1.58,0,0,1-.73-.66,2.69,2.69,0,0,1-.3-1q-.06-.61-.08-1.37v-2.8h-.85Z"/>
          <path class="cls-1" d="M111,54.21h3.81V58a4.56,4.56,0,0,0,.18,1.5.67.67,0,0,0,.67.48.9.9,0,0,0,.7-.33,1.26,1.26,0,0,0,.29-.87v-2.5h-1V54.21h4.07V60h.77v2.09h-3l-.42-1-.31.35a2.51,2.51,0,0,1-.44.4,2.58,2.58,0,0,1-.62.32,2.5,2.5,0,0,1-.86.13,4.17,4.17,0,0,1-1.5-.24,2.24,2.24,0,0,1-1-.71,2.9,2.9,0,0,1-.53-1.2,8,8,0,0,1-.16-1.7V56.29H111Z"/>
          <path class="cls-1" d="M121.39,54.87l.6-.33c.24-.12.51-.25.81-.37a6.42,6.42,0,0,1,1-.3,4.68,4.68,0,0,1,1.06-.12,7.53,7.53,0,0,1,1.46.15,4.29,4.29,0,0,1,1.38.52,3.05,3.05,0,0,1,1,1,2.88,2.88,0,0,1,.4,1.57v3.07H130v2h-3.37l-.38-.71a2.25,2.25,0,0,1-.5.5,2.55,2.55,0,0,1-.57.31,3.17,3.17,0,0,1-1.06.2,4.06,4.06,0,0,1-1.12-.16,3.19,3.19,0,0,1-1-.47,2.43,2.43,0,0,1-.72-.81,2.41,2.41,0,0,1-.28-1.19,2.7,2.7,0,0,1,.26-1.2,2.74,2.74,0,0,1,.71-.91,3.21,3.21,0,0,1,1-.58,3.85,3.85,0,0,1,1.26-.21,2.47,2.47,0,0,1,.62.07,2.51,2.51,0,0,1,.47.17,1.64,1.64,0,0,1,.31.19l.15.13v-.55a.69.69,0,0,0-.42-.71,2.86,2.86,0,0,0-1.07-.17,3.47,3.47,0,0,0-1.3.24,9.55,9.55,0,0,0-1,.49Zm3.49,5.46a1.14,1.14,0,0,0,.63-.17,1.22,1.22,0,0,0,.38-.35v-.6l-.07-.1a.8.8,0,0,0-.17-.15,1.2,1.2,0,0,0-.28-.14,1.18,1.18,0,0,0-.42-.06.91.91,0,0,0-.69.24.84.84,0,0,0-.22.6.68.68,0,0,0,.24.54A.88.88,0,0,0,124.88,60.33Z"/>
          <path class="cls-1" d="M135.4,62.07h-4.59V60h.68V52.31h-.66v-2h3.65V60h.93Z"/>
        </g>
        <polygon class="cls-1" points="61.24 44.2 41.38 44.2 38.24 17.09 40.8 16.79 43.68 41.62 58.95 41.62 62.65 10.19 65.93 10.19 65.59 6.78 62.48 6.78 61.44 2.58 41.3 2.58 40.12 6.78 34.08 6.78 34.08 4.2 38.16 4.2 39.34 0 63.45 0 64.5 4.2 67.93 4.2 68.78 12.77 64.95 12.77 61.24 44.2"/>
        <path class="cls-1" d="M28.44,41.37A1.37,1.37,0,0,1,27.07,40V34.41H18.15A1.37,1.37,0,0,1,16.78,33V15.32A1.37,1.37,0,0,1,18.15,14H47.7a1.37,1.37,0,0,1,1.37,1.37V33a1.37,1.37,0,0,1-1.37,1.37H38l-8.72,6.68A1.37,1.37,0,0,1,28.44,41.37ZM29.81,33v4.19l6.68-5.12a1.37,1.37,0,0,1,.77-.42l.26,0h8.81v-15H19.52v15h8.77A1.4,1.4,0,0,1,29.81,33Z"/>
        <rect class="cls-1" x="26.9" y="9.31" width="13.09" height="2.2"/>
      </g>
    </g>
  </g>
</svg>
