<svg xmlns="http://www.w3.org/2000/svg" viewBox="0 0 110.07 64.85">
  <defs>
    <style>
      .cls-1 {
        opacity: 0.23;
      }

      .cls-2 {
        fill: #fff;
      }
    </style>
  </defs>
  <title>Recurso 3</title>
  <g id="Capa_2" data-name="Capa 2">
    <g id="Capa_2-2" data-name="Capa 2">
      <g class="cls-1">
        <g>
          <path class="cls-2" d="M106.6,27.27a28.15,28.15,0,0,0-18.4-11.6l-.42-.07c1.29-2.82-.2-8.11-1.74-10C82.44,1.28,77-.22,71.48,0A55.82,55.82,0,0,0,53.75,3.88,45.35,45.35,0,0,0,45.55,8c-1.33.86-3.49,1.87-4.7,3.26A38.06,38.06,0,0,0,37,8.14,30.53,30.53,0,0,0,26.09,3.25c-7.27-1.64-15.31-1-21.19,4-5.26,4.47-6.56,14.27-2.54,20,4.28,6.1,12,10.74,19.43,11.21l-.09.27a25.25,25.25,0,0,0-1.83,6.65,17,17,0,0,0,7.82,16.4c6,3.55,14.58,3.71,21.23,2.07,7.37-1.82,13.8-6.9,18-13.4a27.24,27.24,0,0,0,2.87,1.35,25.17,25.17,0,0,0,4.75,1.71A53.79,53.79,0,0,0,86.64,55.3c6.87,0,15.42-1.87,20-7.43C111.45,42,111,33.21,106.6,27.27ZM46.78,10.1a60.64,60.64,0,0,1,7-3.48A60.14,60.14,0,0,1,67,2.54c4.62-.72,11.38-1.47,15,2.13a9.4,9.4,0,0,1,2.79,5.47c.35,1.82-.13,3.41-.18,5.1a35.42,35.42,0,0,0-8.43.37c-4,.66-8.14,1.35-11.2,4a26.26,26.26,0,0,0-3.81-2.49,15,15,0,0,1,5-2.57c1.84-.64,3.64-1.2,5.44-2,.16-.07,0-.32-.11-.27-2.81.91-5.83.89-8.58,2a11.4,11.4,0,0,0-3.48,1.94h0a13.77,13.77,0,0,0-3.41-1c2.56-2.61,7.1-3.15,10.41-3.38,2.64-.18,5.39-.72,7-3,.17-.24-.15-.51-.38-.38a15,15,0,0,1-7.06,2,18.31,18.31,0,0,0-6.46,1.06c-1.27.52-4,1.88-5.21,3.52a25.32,25.32,0,0,0-9.41,1.57,42,42,0,0,0-2.64-3.94A37.45,37.45,0,0,1,46.78,10.1ZM4.38,26.61c-2.45-3.07-2.62-7.53-2-11.26A11.38,11.38,0,0,1,8.28,7.43C14.14,4,21.3,4.22,27.62,6.2a30.38,30.38,0,0,1,8.83,4.54c1.54,1.13,3,2.31,4.53,3.5a38,38,0,0,1,3.17,2.56c-2,.71-3.89,1.54-5.66,2.36-6.68,3.07-12.56,8.46-15.3,15.38-.17.42-.33.85-.49,1.28a1.43,1.43,0,0,0-.38-.06C15.74,35.73,8.48,31.74,4.38,26.61Zm60.7,20.65a27,27,0,0,1-12.45,12.2c-9.6,4.5-26.31,4.1-30.1-7.12a20.45,20.45,0,0,1-.07-10.09,34.57,34.57,0,0,1,8.11-13.8,44.11,44.11,0,0,1,7.15-6.19c4.8-2.56,10.45-4.53,15.8-4.39,5.89.16,11.82,4.61,14.23,9.92C70.61,34.08,68,41.54,65.08,47.26Zm38.23.41c-3,2.62-7,3.89-10.86,4.5a33.46,33.46,0,0,1-13.4-.44,57.48,57.48,0,0,1-6-1.51,27.13,27.13,0,0,1-4.78-2,29.33,29.33,0,0,0,3.52-17.71,16.72,16.72,0,0,0-6.13-10.36c7.53-2.15,15.71-3.34,23.43-1.58a24,24,0,0,1,11.08,5.41c3.33,3.09,6.46,7,7.2,11.55A13.5,13.5,0,0,1,103.31,47.67Z"/>
          <path class="cls-2" d="M55.91,25.24a.54.54,0,0,0-1.06-.14c-1.54,4.06-7,5.61-10.7,6.93a18.53,18.53,0,0,0-7.94,5c-3.14,3.54-6.46,11.45-.82,14.37.37.19.84-.32.47-.61-3.1-2.48-1.75-7.13,0-10a17.11,17.11,0,0,1,7.94-6.67,49.31,49.31,0,0,0,8.43-3.92C53.78,29.12,56.18,27.34,55.91,25.24Z"/>
          <path class="cls-2" d="M56.65,24.61s-.08,0-.07,0c.2,3.37-.37,6.6-3.38,8.52-2.59,1.65-5.61,2.19-8.4,3.4-4.56,2-9.3,6-8,11.55.15.63,1.21.68,1.33,0,.3-1.75.25-3.36,1.19-5a9.34,9.34,0,0,1,3.76-3.48C46,38,49.21,37.28,52.17,35.85a9.57,9.57,0,0,0,4.75-4.37C58,29.17,57.4,26.9,56.65,24.61Z"/>
          <path class="cls-2" d="M32.46,17.47a29.71,29.71,0,0,0-3.25.23,5.92,5.92,0,0,1-4.27-2.1c-1.45-1.4-2.7-3.14-4.69-3.8-4.06-1.34-7.93,1-11.14,3.21-.41.28,0,.94.39.68a17.39,17.39,0,0,1,7-2.76c3.08-.33,4.78,1.19,6.75,3.35,2.69,3,5.55,4.31,9.45,2.7A.77.77,0,0,0,32.46,17.47Z"/>
          <path class="cls-2" d="M28.2,21.13c-4.24.12-6.38-3.53-9.89-5-2.59-1.12-5-.58-7.54.41-.13.05-.08.25.06.22A9.77,9.77,0,0,1,17,16.55c2.14.77,3.31,2.18,4.89,3.65,1.84,1.71,4.24,3.64,6.78,2.53C29.43,22.38,29,21.11,28.2,21.13Z"/>
          <path class="cls-2" d="M19.76,32.61a20.76,20.76,0,0,1-8-4.21,25.41,25.41,0,0,1-4.79-6.86c-.09-.17-.34,0-.26.15C9.36,27.3,13,32.24,19.61,33.15A.28.28,0,0,0,19.76,32.61Z"/>
          <path class="cls-2" d="M62.45,36.29c-2.1,4.66-4.3,9-8.06,12.58s-8,6.56-13.17,7.72c-.59.13-.34,1,.25.9C52.25,55.42,60,46.77,64.15,37,64.56,36,62.88,35.33,62.45,36.29Z"/>
        </g>
        <path class="cls-2" d="M103,35.56a36.58,36.58,0,0,1-9.28-2.83c-2.83-1.36-5.09-3.31-7.8-4.84a11.62,11.62,0,0,0-13.76,2.21.11.11,0,0,0,.14.18,14.51,14.51,0,0,1,8.78-2.06c3.36.32,5.36,2.4,8,4.28,4.18,3,8.8,4.84,14,4A.49.49,0,0,0,103,35.56Z"/>
        <path class="cls-2" d="M100.64,36.77c-5.33,1.18-9.41.14-14.05-2.63-2.91-1.73-6.75-3.44-10.16-2.29a.64.64,0,0,0,.17,1.24,21.31,21.31,0,0,1,6.7,1.34c2.16.93,4,2.42,6.2,3.31,4,1.63,7.39,1.21,11.34-.29A.35.35,0,0,0,100.64,36.77Z"/>
        <path class="cls-2" d="M95.39,44.39c-7.35,2.7-15.62,3-22.27-1.57-.16-.11-.35.15-.2.26A21.34,21.34,0,0,0,83.5,47.83c4,.51,9,.28,12.64-1.64C97.12,45.68,96.45,44,95.39,44.39Z"/>
      </g>
    </g>
  </g>
</svg>
