<svg xmlns="http://www.w3.org/2000/svg" viewBox="0 0 26.22 54.28">
  <defs>
    <style>
      .cls-1 {
        fill: #022356;
      }
    </style>
  </defs>
  <title>Recurso 5</title>
  <g id="Capa_2" data-name="Capa 2">
    <g id="Capa_2-2" data-name="Capa 2">
      <g>
        <path class="cls-1" d="M26,.06l0,0-.06,0c-.19,0-.28.2-.46.19a.24.24,0,0,0-.09.14c-.1,0-.14,0-.19.12v0a.13.13,0,0,0,0,.09c-.16.13-.46.33-.57.32l-.31.19c0-.13-.11.23-.31.15s-.16.08-.24.12-.28.29-.45.41a.2.2,0,0,0,0,.06c0,.14-.05.17-.22.16s-.12.07-.18.1a.77.77,0,0,0-.38.41.14.14,0,0,0,0,.07,2.78,2.78,0,0,1-.93.77h-.07a18.6,18.6,0,0,0-2,2.33,31.31,31.31,0,0,0-2.59,4.05,35.72,35.72,0,0,0-2.44,5.46c-.61,1.78-1.22,3.55-1.74,5.36-.22.74-.43,1.49-.62,2.24,0,.1-.09.21,0,.29h0c-.11,0-.12.15-.15.25-.13.43-.22.86-.33,1.29-.38,1.51-.73,3-1.07,4.54s-.61,3-.84,4.49a5.38,5.38,0,0,0-.11.8,1.09,1.09,0,0,1-.32-.29l0,0a.78.78,0,0,0,.08-.32c.26-1.59.58-3.17.9-4.75.46-2.24,1-4.46,1.57-6.67.55-2,1.14-4.08,1.85-6.08a46.7,46.7,0,0,1,1.92-4.69c.19-.4.39-.8.58-1.2a1.14,1.14,0,0,0,0-.15l.51-.93.27-.25c.08-.12.16-.23.23-.35a29.69,29.69,0,0,1,2.2-3.21C20,4.62,20.8,3.85,21.54,3c.2-.14.34-.36.54-.49A5.55,5.55,0,0,0,22.73,2a1.28,1.28,0,0,1,.33-.22s.07-.11.12-.14l0,0,.13-.11a.18.18,0,0,0,.08-.1c.05,0,.1,0,.15,0A2,2,0,0,0,24.08,1c0-.05.07-.08.09-.14s.17-.08.22-.17h0a.1.1,0,0,0,.08,0c.06,0,.16,0,.15-.16a.9.9,0,0,0-.29.13A.9.9,0,0,0,24,.78a8.18,8.18,0,0,0-.84.48,21.52,21.52,0,0,0-3.11,2.16.15.15,0,0,0-.1.09l-.13.09a22.55,22.55,0,0,0-3.13,3.21,1.58,1.58,0,0,0-.44,1.46.55.55,0,0,1,0,.12c0,.45,0,.45-.4.27-.67-.29-.67-.29-1.05.27v0c-.14.18-.28.35-.41.54q-1,1.33-1.78,2.74c0,.07-.1.13,0,.2a2.13,2.13,0,0,0,.44.3c.25.29.6.46.91.78-.46-.13-.81-.36-1.22-.46a.47.47,0,0,0-.38-.13l.33.26.9.82a11.53,11.53,0,0,1-1.41-.24l-.29-.08c-.07,0-.15,0-.18.05s-.23.34-.24.55a.51.51,0,0,0-.07.09c-.35.7-.66,1.41-1,2.13-.47,1.12-.9,2.26-1.27,3.43-.06.19,0,.26.16.32s.51.19.77.28l1.05.4c-.74,0-1.46,0-2.18-.09-.15,0-.2,0-.24.17-.07.32-.16.63-.26.95,0,.14,0,.21.13.25l1.44.49.57.21a.33.33,0,0,1-.23.05C9.72,23,9,23,8.36,23a.26.26,0,0,0-.29.23c-.17.59-.34,1.19-.49,1.78a24.52,24.52,0,0,0-.68,4c0,.43,0,.43.4.5s1.05.16,1.62.3l-1.77.49c-.39.11-.38.12-.4.52a6.15,6.15,0,0,0,.34,2.45.12.12,0,0,0,.06.16h0v0l0,.09h0a.12.12,0,0,1,0,0l0,0a.11.11,0,0,0,0,.07v0A3.36,3.36,0,0,0,8.72,35c.21.1.28.06.3-.16a1.06,1.06,0,0,1,0-.23c.11.22.33.36.41.6l0,.27v.05c0,.25-.07.51-.07.54v.12a7.64,7.64,0,0,0-.14,1.25c0,.24-.12.33-.36.34a8.85,8.85,0,0,0-1,0H7.57a10,10,0,0,1-1.18,0H6.32a.15.15,0,0,0-.09.06H4.68a.22.22,0,0,0-.25.18,3.74,3.74,0,0,0,0,2.37.21.21,0,0,0,.24.16H5.82c.07,0,.14,0,.19.05a.55.55,0,0,1-.19.8c-1.1.49-2.15,1.08-3.22,1.62a2.54,2.54,0,0,0-1.35,1.64A24.94,24.94,0,0,0,.46,48.5Q.14,50.69,0,52.91a.77.77,0,0,0,.64.87,5.86,5.86,0,0,0,.85.14c1.14.12,2.28.16,3.42.24a8.19,8.19,0,0,0,1.23.06,4,4,0,0,0,.71,0c.16,0,.12-.18.15,0l0,0h.26c2.94,0,5.89.08,8.83-.1a21.17,21.17,0,0,0,3.36-.37c.58-.13.7-.29.66-.88-.06-.89-.12-1.78-.24-2.67-.09-.71-.14-1.43-.29-2.14a18.37,18.37,0,0,0-.75-3.56A2.5,2.5,0,0,0,17.28,43l-.15-.11q-1.37-.73-2.76-1.4a.52.52,0,0,1-.32-.66.23.23,0,0,1,.26-.21h1.15a.22.22,0,0,0,.24-.16,3.39,3.39,0,0,0,0-2.32.3.3,0,0,0-.34-.23H10.77c-.18,0-.22,0-.2-.23.1-.77.19-1.54.27-2.31,0-.2.09-.3.31-.33a5.59,5.59,0,0,0,2.47-1,10.36,10.36,0,0,0,2.86-3.26,13.74,13.74,0,0,0,1.08-2.15c.07-.16.15-.32.22-.49q.4-1,.71-2.05c0-.13,0-.2-.13-.21-.39,0-.78-.09-1.17-.08-1-.1-2-.17-3-.22l.09,0-.09,0-1.54-.15v0l1.54-.11L17.65,25a1,1,0,0,0,.45,0h0a.57.57,0,0,0,.34-.05h-.3a.53.53,0,0,0-.38,0h0a10.77,10.77,0,0,0-1.32-.1l-3.19-.16a2,2,0,0,1-.5-.07,2.3,2.3,0,0,1,.55-.13l5.72-.9a.31.31,0,0,0,.28-.24,12.86,12.86,0,0,0,.54-3c0-.16-.06-.2-.19-.21l-2-.25-3.1-.39a.34.34,0,0,1,.17-.08l1.92-.34,3.28-.55c.18,0,.28-.09.3-.28a4.42,4.42,0,0,1,.12-.67c.05-.2,0-.25-.2-.25l-4.46-.13c-.08,0-.17,0-.25-.05l.17-.06L20,15.78c.49-.14.48-.14.53-.65a35.58,35.58,0,0,1,1.26-6.81,24.59,24.59,0,0,1,2.5-5.77s0-.08,0-.13a6.18,6.18,0,0,1,.47-.67l.06,0a.23.23,0,0,0,.09-.14c0-.2.2-.3.31-.44l.15-.4a.35.35,0,0,0,.18.06.07.07,0,0,0,0,0L25.7.7l.22-.21a0,0,0,0,0,0,0s0,0,0,0a.4.4,0,0,1,.18-.19l.08-.13C26.16,0,26.08,0,26,.06Z"/>
        <path class="cls-1" d="M22.44,52.32a.77.77,0,0,0,.33-.33A.52.52,0,0,0,22.44,52.32Z"/>
        <path class="cls-1" d="M24.84.45l0,0c.06,0,.12,0,.13-.13h0l-.09.08c-.08,0-.18,0-.19.14S24.81.51,24.84.45Z"/>
        <polygon class="cls-1" points="24.7 0.5 24.7 0.5 24.7 0.49 24.7 0.5"/>
        <path class="cls-1" d="M17.66,5.4l0,0a0,0,0,0,0,0,0l0,0Z"/>
        <polygon class="cls-1" points="4.64 21.22 4.64 21.22 4.64 21.22 4.64 21.22"/>
        <path class="cls-1" d="M21.6,3l-.09.19C21.56,3.17,21.7,3.16,21.6,3Z"/>
        <path class="cls-1" d="M22,2.68l0,0,.05,0,0,0Z"/>
        <path class="cls-1" d="M7.36,37.57c-.08,0-.15.08-.14.19S7.39,37.69,7.36,37.57Z"/>
        <path class="cls-1" d="M9.29,1.16H8.82A.57.57,0,0,0,9.29,1.16Z"/>
      </g>
    </g>
  </g>
</svg>
